<?xml version="1.0" standalone="no"?>
<!DOCTYPE svg PUBLIC "-//W3C//DTD SVG 20010904//EN"
 "http://www.w3.org/TR/2001/REC-SVG-20010904/DTD/svg10.dtd">
<svg version="1.0" xmlns="http://www.w3.org/2000/svg"
 width="500.000000pt" height="500.000000pt" viewBox="0 0 500.000000 500.000000"
 preserveAspectRatio="xMidYMid meet">
<metadata>
Created by potrace 1.14, written by Peter Selinger 2001-2017
</metadata>
<g transform="translate(0.000000,500.000000) scale(0.100000,-0.100000)"
fill="#000000" stroke="none">
<path d="M140 2500 l0 -2140 2362 2 2363 3 0 2135 0 2135 -2363 3 -2362 2 0
-2140z m4665 2110 l31 0 0 -2110 0 -2110 -2333 0 -2333 0 0 2110 0 2109 78 3
c55 2 4297 0 4557 -2z"/>
<path d="M560 2500 l0 -1740 1960 0 1960 0 0 1740 0 1740 -1960 0 -1960 0 0
-1740z"/>
</g>
</svg>
